<?xml version="1.0" encoding="UTF-8" standalone="no"?>
<!-- Generator: Adobe Illustrator 16.0.0, SVG Export Plug-In . SVG Version: 6.00 Build 0)  -->

<svg
   xmlns:dc="http://purl.org/dc/elements/1.1/"
   xmlns:cc="http://creativecommons.org/ns#"
   xmlns:rdf="http://www.w3.org/1999/02/22-rdf-syntax-ns#"
   xmlns:svg="http://www.w3.org/2000/svg"
   xmlns="http://www.w3.org/2000/svg"
   xmlns:xlink="http://www.w3.org/1999/xlink"
   xmlns:sodipodi="http://sodipodi.sourceforge.net/DTD/sodipodi-0.dtd"
   xmlns:inkscape="http://www.inkscape.org/namespaces/inkscape"
   version="1.1"
   id="Ebene_1"
   x="0px"
   y="0px"
   width="309.07593"
   height="58.756584"
   viewBox="0 0 309.07592 58.756585"
   enable-background="new 0 0 147.598 63.905"
   xml:space="preserve"
   inkscape:version="0.91+devel r"
   sodipodi:docname="BiBiServ_Logo_orig_modified.svg"><metadata
     id="metadata8661"><rdf:RDF><cc:Work
         rdf:about=""><dc:format>image/svg+xml</dc:format><dc:type
           rdf:resource="http://purl.org/dc/dcmitype/StillImage" /><dc:title></dc:title></cc:Work></rdf:RDF></metadata><defs
     id="defs8659" /><sodipodi:namedview
     pagecolor="#ffffff"
     bordercolor="#666666"
     borderopacity="1"
     objecttolerance="10"
     gridtolerance="10"
     guidetolerance="10"
     inkscape:pageopacity="0"
     inkscape:pageshadow="2"
     inkscape:window-width="1855"
     inkscape:window-height="1176"
     id="namedview8657"
     showgrid="false"
     fit-margin-top="0"
     fit-margin-left="0"
     fit-margin-right="0"
     fit-margin-bottom="0"
     inkscape:zoom="3.3655096"
     inkscape:cx="201.04204"
     inkscape:cy="23.987589"
     inkscape:window-x="65"
     inkscape:window-y="24"
     inkscape:window-maximized="1"
     inkscape:current-layer="Ebene_1" /><g
     id="g8636"
     transform="translate(163.97194,-3.267)"><defs
       id="defs8619"><rect
         id="SVGID_1_"
         y="3.266"
         width="145.105"
         height="74.389"
         x="0" /></defs><clipPath
       id="SVGID_2_"><use
         xlink:href="#SVGID_1_"
         overflow="visible"
         id="use8621"
         style="overflow:visible"
         x="0"
         y="0"
         width="100%"
         height="100%" /></clipPath><path
       clip-path="url(#SVGID_2_)"
       d="m 111.831,37.656 c 4.254,0 7.716,-2.855 7.716,-6.365 0,-3.509 -3.462,-6.364 -7.716,-6.364 -4.254,0 -7.716,2.855 -7.716,6.364"
       id="path8624"
       inkscape:connector-curvature="0"
       style="fill:none;stroke:#ffffff;stroke-width:2.0309999" /><path
       clip-path="url(#SVGID_2_)"
       d="m 111.682,60.819 c 18.459,0 33.422,-12.884 33.422,-28.775 0,-15.894 -14.963,-28.777 -33.422,-28.777 -18.459,0 -33.424,12.883 -33.424,28.776 22.14,0 33.423,-10e-4 33.423,-10e-4 l 0.001,28.777"
       id="path8626"
       inkscape:connector-curvature="0"
       style="fill:#ccd2e1" /><path
       clip-path="url(#SVGID_2_)"
       d="m 111.682,48.917 c 11.858,0 21.506,-7.569 21.506,-16.874 0,-9.306 -9.647,-16.876 -21.506,-16.876 -11.86,0 -21.507,7.57 -21.507,16.876 l 21.506,-10e-4 z"
       id="path8628"
       inkscape:connector-curvature="0"
       style="fill:#96c7ed" /><path
       clip-path="url(#SVGID_2_)"
       d="m 111.682,49.882 c 12.418,0 22.521,-8.003 22.521,-17.839 0,-9.838 -10.104,-17.841 -22.521,-17.841 -12.42,0 -22.522,8.003 -22.522,17.841"
       id="path8630"
       inkscape:connector-curvature="0"
       style="fill:none;stroke:#ffffff;stroke-width:2.0309999" /><path
       clip-path="url(#SVGID_2_)"
       d="m 111.831,37.392 c 3.694,0 6.7,-2.4 6.7,-5.35 0,-2.949 -3.006,-5.349 -6.7,-5.349 -3.694,0 -6.7,2.4 -6.7,5.349 h 6.55 z"
       id="path8632"
       inkscape:connector-curvature="0"
       style="fill:#d2ac03" /><path
       clip-path="url(#SVGID_2_)"
       d="m 111.831,38.408 c 4.254,0 7.716,-2.855 7.716,-6.365 0,-3.509 -3.462,-6.364 -7.716,-6.364 -4.254,0 -7.716,2.855 -7.716,6.364"
       id="path8634"
       inkscape:connector-curvature="0"
       style="fill:none;stroke:#ffffff;stroke-width:2.0309999" /></g><text
     xml:space="preserve"
     style="font-style:normal;font-weight:normal;font-size:40px;line-height:125%;font-family:Sans;letter-spacing:0px;word-spacing:0px;fill:#000000;fill-opacity:1;stroke:none;stroke-width:1px;stroke-linecap:butt;stroke-linejoin:miter;stroke-opacity:1"
     x="-1.1885273"
     y="51.328289"
     id="text8675"><tspan
       sodipodi:role="line"
       id="tspan8673"
       x="-1.1885273"
       y="51.328289"
       style="font-size:26.66666603px">powered by BiBiServ</tspan></text>
</svg>