<?xml version="1.0" encoding="UTF-8" standalone="no"?>
<svg
   xmlns:dc="http://purl.org/dc/elements/1.1/"
   xmlns:cc="http://creativecommons.org/ns#"
   xmlns:rdf="http://www.w3.org/1999/02/22-rdf-syntax-ns#"
   xmlns:svg="http://www.w3.org/2000/svg"
   xmlns="http://www.w3.org/2000/svg"
   id="svg5107"
   version="1.1"
   viewBox="0 0 189.67117 25.806778"
   height="25.806778mm"
   width="189.67117mm">
  <defs
     id="defs5101" />
  <metadata
     id="metadata5104">
    <rdf:RDF>
      <cc:Work
         rdf:about="">
        <dc:format>image/svg+xml</dc:format>
        <dc:type
           rdf:resource="http://purl.org/dc/dcmitype/StillImage" />
        <dc:title></dc:title>
      </cc:Work>
    </rdf:RDF>
  </metadata>
  <g
     transform="translate(-6.8116441,-105.67338)"
     id="layer1">
    <text
       id="text6516-2-0-8"
       y="131.2254"
       x="6.7396774"
       style="font-style:normal;font-variant:normal;font-weight:300;font-stretch:normal;font-size:10.58333302px;line-height:125%;font-family:Arual;-inkscape-font-specification:'Arual Light';letter-spacing:0.26458332px;word-spacing:0px;fill:#000000;fill-opacity:1;stroke:none;stroke-width:0.26458332px;stroke-linecap:butt;stroke-linejoin:miter;stroke-opacity:1"
       xml:space="preserve"><tspan
         dx="0 0 0 0 0 0 0 0 0 -2.0599999"
         style="font-style:normal;font-variant:normal;font-weight:normal;font-stretch:normal;font-size:35.98333359px;font-family:'Coco Puff';-inkscape-font-specification:'Coco Puff';letter-spacing:0.26458332px;stroke-width:0.26458332px"
         y="131.2254"
         x="6.7396774"
         id="tspan6514-8-5-2">Bif   serv</tspan></text>
    <g
       style="fill:#0061a1;fill-opacity:1;stroke:#0061a1;stroke-opacity:1"
       transform="matrix(-0.94716326,0,0,-1.038543,208.14007,202.07367)"
       id="g6505-0-5-4-0">
      <g
         style="fill:#0061a1;fill-opacity:1;stroke:#0061a1;stroke-opacity:1"
         id="g6168-0-0-8-3-7"
         transform="translate(51.025214,6.609719)">
        <g
           style="fill:#0061a1;fill-opacity:1;stroke:#0061a1;stroke-opacity:1"
           id="g6171-3-7-0-3-1">
          <path
             style="fill:#0061a1;fill-opacity:1;stroke:#0061a1;stroke-width:1.33333325;stroke-opacity:1"
             d="m 352.76953,250.87891 v 12.82617 c 1.79423,-0.0262 3.61823,0.0708 4.98438,-0.1582 5.19882,-0.28453 3.19905,7.20788 7.57226,8.94726 3.21261,2.52984 7.72234,4.43465 11.72461,2.61719 3.92554,-0.64432 5.0101,4.32378 6.91602,6.91406 0.82896,1.41454 1.65931,2.82765 2.48828,4.24219 -2.69991,1.64244 -5.3298,3.84989 -5.61133,7.24804 -0.85256,4.63832 -0.16961,10.56953 4.47266,12.95118 2.2128,0.71336 -0.13242,2.42235 -0.57227,3.71484 -1.91712,2.83615 -3.02935,6.54214 -6.05273,8.35352 -3.93939,-1.04262 -8.33793,-1.22611 -11.83399,1.41211 -4.12398,1.78194 -4.80453,6.4138 -6.89258,9.59179 -2.24293,0.35467 -4.75619,0.71389 -7.19531,0.65039 v 12.91602 c 0.62814,-0.002 1.25764,-0.0159 1.88867,-0.0488 17.17861,-0.43995 34.31564,-10.56443 41.16992,-26.63672 8.72024,-18.94161 3.39895,-43.64878 -13.40039,-56.37695 -7.60026,-6.05562 -17.21536,-9.24825 -26.91992,-9.12891 -0.91288,-0.0242 -1.8251,-0.0352 -2.73828,-0.0352 z"
             transform="matrix(0.26458333,0,0,0.26458333,-1.9377038,-4.7440341)"
             id="path5599-2-9-4-6-1" />
        </g>
      </g>
      <g
         style="fill:#0061a1;fill-opacity:1;stroke:#0061a1;stroke-opacity:1"
         id="g6168-4-4-3-2-2"
         transform="rotate(180,113.06933,77.106597)">
        <g
           style="fill:#0061a1;fill-opacity:1;stroke:#0061a1;stroke-opacity:1"
           id="g6171-4-1-5-1-5">
          <path
             style="fill:#0061a1;fill-opacity:1;stroke:#0061a1;stroke-width:1.33333325;stroke-opacity:1"
             d="m 352.76953,250.87891 v 12.82617 c 1.79423,-0.0262 3.61823,0.0708 4.98438,-0.1582 5.19882,-0.28453 3.19905,7.20788 7.57226,8.94726 3.21261,2.52984 7.72234,4.43465 11.72461,2.61719 3.92554,-0.64432 5.0101,4.32378 6.91602,6.91406 0.82896,1.41454 1.65931,2.82765 2.48828,4.24219 -2.69991,1.64244 -5.3298,3.84989 -5.61133,7.24804 -0.85256,4.63832 -0.16961,10.56953 4.47266,12.95118 2.2128,0.71336 -0.13242,2.42235 -0.57227,3.71484 -1.91712,2.83615 -3.02935,6.54214 -6.05273,8.35352 -3.93939,-1.04262 -8.33793,-1.22611 -11.83399,1.41211 -4.12398,1.78194 -4.80453,6.4138 -6.89258,9.59179 -2.24293,0.35467 -4.75619,0.71389 -7.19531,0.65039 v 12.91602 c 0.62814,-0.002 1.25764,-0.0159 1.88867,-0.0488 17.17861,-0.43995 34.31564,-10.56443 41.16992,-26.63672 8.72024,-18.94161 3.39895,-43.64878 -13.40039,-56.37695 -7.60026,-6.05562 -17.21536,-9.24825 -26.91992,-9.12891 -0.91288,-0.0242 -1.8251,-0.0352 -2.73828,-0.0352 z"
             transform="matrix(0.26458333,0,0,0.26458333,-1.9377038,-4.7440341)"
             id="path5599-4-3-7-4-4" />
        </g>
      </g>
      <g
         style="fill:#0061a1;fill-opacity:1;stroke:#0061a1;stroke-opacity:1"
         id="g6480-6-6-2-7"
         transform="matrix(0.69543026,0,0,0.69543026,48.780954,24.195786)">
        <g
           style="fill:#0061a1;fill-opacity:1;stroke:#0061a1;stroke-opacity:1"
           id="g6462-7-8-5-3">
          <g
             style="fill:#0061a1;fill-opacity:1;stroke:#0061a1;stroke-opacity:1"
             id="g6392-7-7-0-8">
            <g
               style="fill:#0061a1;fill-opacity:1;stroke:#0061a1;stroke-width:1;stroke-miterlimit:4;stroke-dasharray:none;stroke-opacity:1"
               transform="translate(2.2507365e-6,-7.5484393e-6)"
               id="g6358-1-3-0-8">
              <path
                 style="fill:#0061a1;fill-opacity:1;fill-rule:evenodd;stroke:#0061a1;stroke-width:1;stroke-linecap:butt;stroke-linejoin:miter;stroke-miterlimit:4;stroke-dasharray:none;stroke-opacity:1"
                 d="m 125.08214,63.339614 8.35217,6.748555 v 7.14946"
                 id="path6269-5-0-4-9" />
              <path
                 style="fill:#0061a1;fill-opacity:1;fill-rule:evenodd;stroke:#0061a1;stroke-width:1;stroke-linecap:butt;stroke-linejoin:miter;stroke-miterlimit:4;stroke-dasharray:none;stroke-opacity:1"
                 d="m 133.43431,77.237629 -8.35217,6.74856 v 7.14946"
                 id="path6269-3-6-7-8-3" />
              <path
                 style="fill:#0061a1;fill-opacity:1;fill-rule:evenodd;stroke:#0061a1;stroke-width:1;stroke-linecap:butt;stroke-linejoin:miter;stroke-miterlimit:4;stroke-dasharray:none;stroke-opacity:1"
                 d="m 125.08214,91.135649 8.35217,6.748558"
                 id="path6269-3-0-4-2-8-6" />
            </g>
            <g
               style="fill:#0061a1;fill-opacity:1;stroke:#0061a1;stroke-width:1;stroke-miterlimit:4;stroke-dasharray:none;stroke-opacity:1"
               id="g6358-2-7-4-2-9"
               transform="matrix(1,0,0,-1,-0.30067384,161.22381)">
              <path
                 style="fill:#0061a1;fill-opacity:1;fill-rule:evenodd;stroke:#0061a1;stroke-width:1;stroke-linecap:butt;stroke-linejoin:miter;stroke-miterlimit:4;stroke-dasharray:none;stroke-opacity:1"
                 d="m 125.08214,63.339614 8.35217,6.748555 v 7.14946"
                 id="path6269-0-9-5-2-3" />
              <path
                 style="fill:#0061a1;fill-opacity:1;fill-rule:evenodd;stroke:#0061a1;stroke-width:1;stroke-linecap:butt;stroke-linejoin:miter;stroke-miterlimit:4;stroke-dasharray:none;stroke-opacity:1"
                 d="m 133.43431,77.237629 -8.35217,6.74856 v 7.14946"
                 id="path6269-3-9-2-9-1-2" />
              <path
                 style="fill:#0061a1;fill-opacity:1;fill-rule:evenodd;stroke:#0061a1;stroke-width:1;stroke-linecap:butt;stroke-linejoin:miter;stroke-miterlimit:4;stroke-dasharray:none;stroke-opacity:1"
                 d="m 125.08214,91.135649 8.35217,6.748558"
                 id="path6269-3-0-3-3-0-9-0" />
            </g>
          </g>
          <path
             style="fill:#0061a1;fill-opacity:1;fill-rule:evenodd;stroke:#0061a1;stroke-width:1;stroke-linecap:butt;stroke-linejoin:miter;stroke-miterlimit:4;stroke-dasharray:none;stroke-opacity:1"
             d="m 125.88395,71.224065 h 6.28083"
             id="path6394-32-1-6-1" />
          <path
             style="fill:#0061a1;fill-opacity:1;fill-rule:evenodd;stroke:#0061a1;stroke-width:1;stroke-linecap:butt;stroke-linejoin:miter;stroke-miterlimit:4;stroke-dasharray:none;stroke-opacity:1"
             d="m 125.95077,73.763127 h 6.28083"
             id="path6394-3-9-0-5-4" />
          <path
             style="fill:#0061a1;fill-opacity:1;fill-rule:evenodd;stroke:#0061a1;stroke-width:1;stroke-linecap:butt;stroke-linejoin:miter;stroke-miterlimit:4;stroke-dasharray:none;stroke-opacity:1"
             d="m 125.95077,76.502639 h 6.28083"
             id="path6394-0-1-4-6-4" />
          <path
             style="fill:#0061a1;fill-opacity:1;fill-rule:evenodd;stroke:#0061a1;stroke-width:1;stroke-linecap:butt;stroke-linejoin:miter;stroke-miterlimit:4;stroke-dasharray:none;stroke-opacity:1"
             d="m 125.95077,84.988447 h 6.28083"
             id="path6394-2-2-1-6-4" />
          <path
             style="fill:#0061a1;fill-opacity:1;fill-rule:evenodd;stroke:#0061a1;stroke-width:1;stroke-linecap:butt;stroke-linejoin:miter;stroke-miterlimit:4;stroke-dasharray:none;stroke-opacity:1"
             d="m 125.95077,87.393873 h 6.28083"
             id="path6394-4-1-7-6-5" />
          <path
             style="fill:#0061a1;fill-opacity:1;fill-rule:evenodd;stroke:#0061a1;stroke-width:1;stroke-linecap:butt;stroke-linejoin:miter;stroke-miterlimit:4;stroke-dasharray:none;stroke-opacity:1"
             d="m 126.01759,90.066568 h 6.28083"
             id="path6394-9-6-6-7-0" />
        </g>
      </g>
    </g>
  </g>
</svg>
